<svg width="51" height="27" viewBox="0 0 51 27" fill="none" xmlns="http://www.w3.org/2000/svg">
<path d="M25.5 15.125C28.9638 15.125 32.0238 15.97 34.51 17.075C36.805 18.115 38.25 20.455 38.25 22.99V26.5H12.75V23.0117C12.75 20.455 14.195 18.115 16.49 17.0967C18.9763 15.97 22.0363 15.125 25.5 15.125ZM8.5 15.6667C10.8375 15.6667 12.75 13.7167 12.75 11.3333C12.75 8.95 10.8375 7 8.5 7C6.1625 7 4.25 8.95 4.25 11.3333C4.25 13.7167 6.1625 15.6667 8.5 15.6667ZM10.9013 18.05C10.115 17.92 9.32875 17.8333 8.5 17.8333C6.39625 17.8333 4.39875 18.2883 2.5925 19.09C1.82264 19.4255 1.16646 19.9843 0.705539 20.697C0.244614 21.4096 -0.000730333 22.2447 1.63305e-06 23.0983V26.5H9.5625V23.0117C9.5625 21.2133 10.0513 19.5233 10.9013 18.05ZM42.5 15.6667C44.8375 15.6667 46.75 13.7167 46.75 11.3333C46.75 8.95 44.8375 7 42.5 7C40.1625 7 38.25 8.95 38.25 11.3333C38.25 13.7167 40.1625 15.6667 42.5 15.6667ZM51 23.0983C51 21.3433 49.98 19.7833 48.4075 19.09C46.5442 18.261 44.533 17.8332 42.5 17.8333C41.6712 17.8333 40.885 17.92 40.0988 18.05C40.9488 19.5233 41.4375 21.2133 41.4375 23.0117V26.5H51V23.0983ZM25.5 0.5C29.0275 0.5 31.875 3.40333 31.875 7C31.875 10.5967 29.0275 13.5 25.5 13.5C21.9725 13.5 19.125 10.5967 19.125 7C19.125 3.40333 21.9725 0.5 25.5 0.5Z" fill="black"/>
</svg>
