<svg width="31" height="31" viewBox="0 0 31 31" fill="none" xmlns="http://www.w3.org/2000/svg">
<g clip-path="url(#clip0_6_164)">
<path d="M16.1717 0.248068C15.9845 0.0879743 15.7463 0 15.5 0C15.2537 0 15.0155 0.0879743 14.8283 0.248068L0 12.9581V27.9001C0 28.7222 0.326606 29.5107 0.907969 30.0921C1.48933 30.6735 2.27783 31.0001 3.1 31.0001H11.3667C11.6407 31.0001 11.9036 30.8912 12.0973 30.6974C12.2911 30.5036 12.4 30.2408 12.4 29.9667V23.7667C12.4 22.9446 12.7266 22.1561 13.308 21.5747C13.8893 20.9933 14.6778 20.6667 15.5 20.6667C16.3222 20.6667 17.1107 20.9933 17.692 21.5747C18.2734 22.1561 18.6 22.9446 18.6 23.7667V29.9667C18.6 30.2408 18.7089 30.5036 18.9027 30.6974C19.0964 30.8912 19.3593 31.0001 19.6333 31.0001H27.9C28.7222 31.0001 29.5107 30.6735 30.092 30.0921C30.6734 29.5107 31 28.7222 31 27.9001V12.9581L16.1717 0.248068Z" fill="black"/>
</g>
<defs>
<clipPath id="clip0_6_164">
<rect width="31" height="31" fill="white"/>
</clipPath>
</defs>
</svg>
